<?xml version="1.0" encoding="utf-8"?><svg viewBox="0 0 159 90" xmlns="http://www.w3.org/2000/svg" xmlns:xlink="http://www.w3.org/1999/xlink"><style>:root>svg{display:none}:root>svg:target{display:block}</style><svg fill="none" viewBox="0 0 18 30" id="arrow" xmlns="http://www.w3.org/2000/svg"><path d="m5.527 15.015 11.11 11.235c.418.418.607.874.627 1.5.02.626-.17 1.166-.627 1.623-.418.418-.95.627-1.596.627-.645 0-1.177-.209-1.595-.627L.684 16.611C.228 16.155 0 15.623 0 15.015c0-.607.228-1.14.684-1.595L13.446.658c.418-.418.94-.637 1.568-.657.628-.02 1.169.2 1.623.657.418.417.627.95.627 1.595 0 .646-.21 1.177-.627 1.595L5.527 15.015Z" fill="#fff"/></svg><svg fill="none" viewBox="0 0 21 14" id="burger" xmlns="http://www.w3.org/2000/svg"><path d="M2.041 13.333h17.778c.61 0 1.11-.5 1.11-1.11 0-.612-.5-1.112-1.11-1.112H2.04c-.611 0-1.111.5-1.111 1.111s.5 1.111 1.111 1.111Zm0-5.555h17.778c.61 0 1.11-.5 1.11-1.111s-.5-1.111-1.11-1.111H2.04c-.611 0-1.111.5-1.111 1.11 0 .612.5 1.112 1.111 1.112ZM.93 1.11c0 .611.5 1.111 1.111 1.111h17.778c.61 0 1.11-.5 1.11-1.11C20.93.5 20.43 0 19.82 0H2.04C1.43 0 .93.5.93 1.111Z" fill="#fff"/></svg><svg fill="none" viewBox="0 0 38 38" id="close" xmlns="http://www.w3.org/2000/svg"><path stroke="#fff" stroke-width="4" d="m10.119 28.787 18.667-18.668M28.786 27.881 10.119 9.214"/></svg><svg fill="none" viewBox="0 0 4 4" id="dot" xmlns="http://www.w3.org/2000/svg"><circle cx="2" cy="2" r="2" fill="#21a038"/></svg><svg fill="none" viewBox="0 0 32 32" id="footer-email" xmlns="http://www.w3.org/2000/svg"><g clip-path="url(#ea)"><path d="m23.967 11.503-.003-.006c-.003-.004-.009-.006-.012-.011a1.9 1.9 0 0 0-1.418-.637H11.997a1.89 1.89 0 0 0-1.416.635l-.002.002c-.004.004-.009.006-.012.01l-.003.008a1.885 1.885 0 0 0-.473 1.253v2.964H7.842a.281.281 0 0 0 0 .562h2.249v1.526h-.985a.281.281 0 0 0 0 .562h.985v.876a1.909 1.909 0 0 0 1.907 1.907h10.537a1.909 1.909 0 0 0 1.907-1.907v-6.49c0-.48-.179-.92-.475-1.254Zm-1.433-.093c.288 0 .555.092.773.247l-.004-.003-5.365 4.164a1.093 1.093 0 0 1-1.346-.002l.002.002-5.365-4.164c.214-.152.481-.244.768-.244h10.537Zm1.345 7.834a1.347 1.347 0 0 1-1.345 1.345H11.997a1.347 1.347 0 0 1-1.345-1.345v-.876h2.756a.281.281 0 0 0 0-.562h-2.756v-5.051c.001-.254.074-.491.198-.692l-.003.006 5.403 4.193c.278.217.632.348 1.016.348a1.65 1.65 0 0 0 1.02-.351l-.004.003 5.403-4.193c.121.196.193.432.195.686l-.001 6.489Z" fill="#21A038"/><circle cx="16" cy="16" r="15.75" stroke="#21A038" stroke-width=".5"/></g><defs><clipPath id="ea"><path fill="#fff" d="M0 0h32v32H0z"/></clipPath></defs></svg><svg fill="none" viewBox="0 0 32 32" id="footer-geo" xmlns="http://www.w3.org/2000/svg"><g clip-path="url(#fa)"><path d="m17.913 19.405 2.611-3.554c.62-.799.993-1.816.993-2.92v-.016a5.444 5.444 0 0 0-1.726-3.949l-.003-.003a5.39 5.39 0 0 0-9.05 3.628l-.001.016a5.38 5.38 0 0 0 1.051 3.523l-.01-.015 2.263 3.296c-3.804.205-7.483 1.04-7.483 2.508 0 1.662 4.865 2.56 9.442 2.56s9.442-.898 9.442-2.56c0-1.5-3.711-2.33-7.529-2.514Zm-6.615-6.769a4.832 4.832 0 0 1 4.479-4.54l.015-.002c.111-.007.222-.01.333-.01h.015c1.264 0 2.414.49 3.268 1.292l-.003-.002a4.884 4.884 0 0 1 1.55 3.542v.002a4.264 4.264 0 0 1-.874 2.589l.008-.01-4.165 5.666-3.689-5.374a4.75 4.75 0 0 1-.937-3.165l-.001.014.001-.002ZM16 23.919c-5.502 0-8.881-1.165-8.881-2 0-.306.53-.788 2.016-1.217 1.568-.422 3.38-.692 5.245-.745l.034-.002.969 1.412h-2.561a.281.281 0 0 0 0 .563h6.108a.281.281 0 0 0 0-.563h-2.458l1.04-1.415c4.552.166 7.368 1.148 7.368 1.968 0 .834-3.378 1.998-8.88 1.998Z" fill="#21A038"/><path d="M17.283 13.038a1.16 1.16 0 1 1-2.32 0 1.16 1.16 0 0 1 2.32 0Z" fill="#21A038"/><circle cx="16" cy="16" r="15.75" stroke="#21A038" stroke-width=".5"/></g><defs><clipPath id="fa"><path fill="#fff" d="M0 0h32v32H0z"/></clipPath></defs></svg><svg fill="none" viewBox="0 0 159 25" id="footer-logo" xmlns="http://www.w3.org/2000/svg"><path d="M42.245 10.858h-3.59l-.7 2.41h-2.843L38.8 2.296h3.414l3.688 10.972h-2.965l-.692-2.41Zm-3.05-2.008h2.502L40.48 4.622h-.06L39.194 8.85ZM49.537 1.748h-2.692v11.52h2.692V1.748ZM56.252 4.691c1.07 0 1.901.38 2.494 1.14.598.761.897 1.828.897 3.202 0 1.374-.296 2.44-.89 3.202-.587.765-1.411 1.147-2.47 1.147-1.273 0-2.138-.52-2.594-1.558h-.053v4.022h-2.692V4.806h2.677v1.482h.053c.213-.502.545-.892.997-1.17.45-.285.978-.427 1.581-.427Zm-.996 6.57c.497 0 .892-.2 1.186-.6.294-.406.44-.949.44-1.628 0-.674-.146-1.212-.44-1.612-.3-.405-.694-.609-1.186-.609s-.887.204-1.186.61c-.295.404-.441.944-.441 1.619 0 .679.146 1.219.44 1.62.295.4.69.6 1.187.6ZM60.778 1.748h2.638v4.646h.053c.456-1.156 1.366-1.733 2.73-1.733.943 0 1.683.281 2.22.844.538.567.806 1.35.806 2.35v5.413h-2.7V8.432c0-.486-.131-.871-.395-1.156-.268-.279-.633-.418-1.094-.418-.462 0-.837.152-1.126.456-.294.31-.44.705-.44 1.187v4.767h-2.692V1.748ZM74.016 11.512c.447 0 .822-.12 1.126-.357.319-.243.48-.555.48-.935v-.586l-1.56.107c-.79.055-1.186.354-1.186.897a.76.76 0 0 0 .311.639c.204.157.48.235.83.235Zm-.95 1.87c-.806 0-1.48-.237-2.023-.714-.557-.481-.836-1.098-.836-1.848 0-1.586 1.143-2.45 3.43-2.593l1.984-.122V7.62c0-.34-.114-.603-.343-.79-.222-.183-.527-.274-.912-.274-.36 0-.659.086-.897.258a.963.963 0 0 0-.403.654H70.64c.036-.857.4-1.544 1.095-2.06.7-.523 1.62-.784 2.76-.784 1.126 0 2.033.261 2.723.783.69.527 1.034 1.217 1.034 2.069v5.794h-2.616v-1.217h-.053c-.223.416-.57.743-1.042.981-.456.233-.948.35-1.475.35ZM82.748 4.806h2.616v1.627h.053c.167-.543.469-.974.904-1.293.437-.32.941-.479 1.514-.479.629 0 1.148.155 1.559.464.41.314.676.758.798 1.33h.053c.168-.547.487-.983.958-1.308.477-.324 1.03-.486 1.658-.486.826 0 1.495.264 2.007.79.512.533.769 1.228.769 2.084v5.734h-2.693v-5.05c0-.912-.405-1.368-1.216-1.368-.38 0-.682.127-.905.38-.228.254-.342.593-.342 1.019v5.019h-2.57V8.182c0-.426-.107-.755-.32-.989-.208-.228-.506-.342-.897-.342-.375 0-.68.13-.912.388-.228.258-.343.6-.343 1.026v5.004h-2.691V4.806ZM100.427 11.512c.446 0 .821-.12 1.126-.357.319-.243.479-.555.479-.935v-.586l-1.559.107c-.791.055-1.186.354-1.186.897 0 .269.104.482.311.639.203.157.48.235.829.235Zm-.95 1.87c-.806 0-1.48-.237-2.023-.714-.557-.481-.836-1.098-.836-1.848 0-1.586 1.143-2.45 3.429-2.593l1.985-.122V7.62c0-.34-.114-.603-.342-.79-.223-.183-.528-.274-.913-.274-.36 0-.659.086-.898.258a.967.967 0 0 0-.402.654H97.05c.035-.857.4-1.544 1.095-2.06.7-.523 1.62-.784 2.761-.784 1.125 0 2.032.261 2.722.783.689.527 1.034 1.217 1.034 2.069v5.794h-2.616v-1.217h-.053c-.224.416-.571.743-1.042.981-.456.233-.948.35-1.475.35ZM106.009 4.805h2.616v1.59h.053c.309-1.136.976-1.704 2-1.704.243 0 .472.035.685.107v2.311c-.233-.101-.522-.152-.867-.152-.578 0-1.022.157-1.331.472-.309.32-.464.775-.464 1.368v4.471h-2.692V4.806ZM117.492 4.805h3.012l-3.042 3.627 3.216 4.836h-3.102l-2.106-3.224-.517.6v2.624h-2.692V1.748h2.692v6.296h.053l2.486-3.239Z" fill="#fff"/><path d="M124.77 6.54c-.431 0-.793.144-1.088.433-.294.289-.459.659-.494 1.11h3.148c-.025-.466-.18-.841-.463-1.125-.29-.279-.657-.418-1.103-.418Zm4.061 4.067a2.998 2.998 0 0 1-1.278 2.069c-.725.517-1.635.775-2.73.775-1.338 0-2.388-.387-3.148-1.163-.761-.776-1.141-1.845-1.141-3.21 0-1.363.378-2.448 1.133-3.253.756-.801 1.777-1.202 3.065-1.202 1.262 0 2.271.383 3.026 1.148.751.771 1.126 1.8 1.126 3.088v.767h-5.726v.168c0 .517.157.935.471 1.255.315.324.725.486 1.232.486.806 0 1.318-.309 1.536-.928h2.434ZM133.333 2.935v1.87h1.528v1.992h-1.528v3.612c0 .593.327.89.981.89.187 0 .37-.013.547-.038v1.916c-.309.071-.704.106-1.186.106-1.085 0-1.863-.182-2.334-.547-.467-.36-.7-.956-.7-1.787V6.797h-1.133V4.805h1.133v-1.87h2.692ZM136.041 4.806h2.699v8.463h-2.699V4.806Zm1.345-.7a1.35 1.35 0 0 1-.973-.38 1.242 1.242 0 0 1-.411-.95c0-.376.137-.693.411-.951.263-.254.588-.38.973-.38s.712.126.981.38c.274.258.411.575.411.95 0 .38-.137.697-.411.951-.264.253-.591.38-.981.38ZM140.11 4.806h2.615v1.589h.053c.467-1.156 1.367-1.734 2.7-1.734.943 0 1.683.281 2.22.844.532.563.799 1.343.799 2.342v5.422h-2.7V8.425c0-.491-.126-.875-.38-1.148-.258-.28-.618-.419-1.08-.419-.456 0-.826.153-1.11.457-.284.304-.426.697-.426 1.179v4.775h-2.691V4.806ZM153.927 11.185c.507 0 .905-.188 1.193-.563.295-.38.442-.91.442-1.59 0-.678-.147-1.218-.442-1.619-.293-.4-.692-.6-1.193-.6-.502 0-.898.198-1.186.593-.294.4-.442.94-.442 1.62 0 .684.145 1.216.434 1.596.289.376.687.563 1.194.563Zm-.046 5.224c-1.196 0-2.167-.233-2.912-.7-.756-.47-1.151-1.1-1.186-1.885h2.615c.056.238.228.43.518.577.283.143.62.213 1.011.213.491 0 .885-.116 1.178-.35.294-.238.442-.56.442-.965v-1.605h-.054c-.172.452-.489.812-.95 1.08-.467.274-1.009.41-1.627.41-1.019 0-1.833-.367-2.441-1.102-.619-.75-.928-1.774-.928-3.072 0-1.343.304-2.398.913-3.163.608-.77 1.442-1.156 2.501-1.156.598 0 1.128.147 1.589.441.447.289.768.675.966 1.156h.046V4.805h2.684v8.296c0 1.004-.398 1.805-1.194 2.403-.796.603-1.853.905-3.171.905ZM38.731 20.332H36.35l-.63 1.737h-.569l2.122-5.67h.534l2.119 5.67h-.566l-.629-1.737Zm-2.22-.464h2.06l-1.019-2.806h-.023l-1.018 2.806ZM43.867 22.07h-.688l-2.074-2.072h-.024v2.071h-.515v-4.232h.515v1.905h.024l2.023-1.905h.66l-2.157 2.012 2.236 2.22ZM47.482 18.273h-1.446v3.796h-.514v-3.796h-1.447v-.436h3.407v.436ZM48.473 23.543c-.09 0-.176-.01-.26-.032v-.444c.079.018.164.028.256.028a.655.655 0 0 0 .467-.17c.118-.11.225-.298.319-.565l.094-.263-1.591-4.26h.557l1.297 3.706h.012l1.3-3.706h.55l-1.65 4.436c-.183.498-.369.834-.558 1.006-.185.176-.45.264-.793.264ZM53.365 21.66c.38 0 .697-.114.951-.343.257-.224.385-.505.385-.84v-.468l-1.238.087c-.726.047-1.088.313-1.088.797 0 .228.092.413.275.555.183.14.422.212.715.212Zm-.102.455c-.422 0-.764-.112-1.026-.337a1.123 1.123 0 0 1-.393-.889c0-.736.519-1.14 1.556-1.214l1.301-.087v-.36c0-.31-.093-.55-.279-.72-.188-.17-.453-.255-.794-.255-.296 0-.54.07-.734.212a.925.925 0 0 0-.362.593h-.5c.022-.372.183-.676.484-.912.299-.238.67-.357 1.116-.357.485 0 .871.125 1.16.377.285.252.428.591.428 1.018v2.884h-.495v-.81h-.012a1.369 1.369 0 0 1-.566.622c-.264.157-.56.235-.884.235ZM57.146 20.25c-.048.608-.145 1.053-.291 1.336-.181.346-.46.519-.837.519a.675.675 0 0 1-.236-.04v-.475a.665.665 0 0 0 .212.03c.207 0 .364-.127.471-.384.092-.22.155-.555.19-1.006.06-.629.114-1.426.164-2.393h2.708v4.232h-.515v-3.796h-1.725a40.67 40.67 0 0 1-.141 1.976ZM61.051 19.715v1.918h.916c.31 0 .557-.088.743-.263.184-.174.275-.405.275-.696 0-.293-.093-.526-.28-.7-.182-.172-.428-.259-.738-.259h-.916Zm-.514-1.878h.514v1.438h.916c.466 0 .838.126 1.116.378.28.253.42.594.42 1.02 0 .425-.14.765-.42 1.02-.278.25-.65.376-1.116.376h-1.43v-4.232ZM67.174 20.089h-2.373v1.98h-.515v-4.232h.515v1.816h2.373v-1.816h.515v4.232h-.515v-1.98ZM72.298 17.837h.515v4.232h-.515v-4.232Zm-3.08 1.878v1.918h.915c.31 0 .557-.088.743-.263.183-.174.274-.405.274-.696 0-.293-.092-.526-.278-.7-.183-.172-.43-.259-.74-.259h-.915Zm-.515-1.878h.514v1.438h.916c.466 0 .838.126 1.116.378.28.253.42.594.42 1.02 0 .425-.14.765-.42 1.02-.278.25-.65.376-1.116.376h-1.43v-4.232ZM74.81 16.057c0 .235.07.427.212.574a.76.76 0 0 0 .573.223c.239 0 .429-.075.57-.223a.794.794 0 0 0 .212-.574h.397c0 .337-.108.609-.322.813-.217.207-.503.31-.857.31-.356 0-.641-.103-.856-.31-.218-.204-.327-.476-.327-.813h.397Zm-.983 6.012v-4.232h.515v3.422h.023l2.405-3.422h.515v4.232h-.515v-3.423h-.027l-2.401 3.423h-.515ZM80.08 22.07v-4.233h.616l1.674 3.544h.023l1.67-3.544h.598v4.232h-.518v-3.29h-.024l-1.549 3.208h-.404l-1.548-3.207h-.024v3.29h-.515ZM87.023 21.66c.38 0 .697-.114.951-.343.257-.224.385-.505.385-.84v-.468l-1.238.087c-.725.047-1.088.313-1.088.797 0 .228.091.413.275.555.183.14.421.212.715.212Zm-.102.455c-.422 0-.764-.112-1.026-.337a1.12 1.12 0 0 1-.393-.889c0-.736.52-1.14 1.556-1.214l1.301-.087v-.36c0-.31-.093-.55-.279-.72-.189-.17-.453-.255-.794-.255-.296 0-.54.07-.735.212a.922.922 0 0 0-.361.593h-.499c.02-.372.182-.676.483-.912.3-.238.671-.357 1.116-.357.485 0 .871.125 1.16.377.285.252.428.591.428 1.018v2.884h-.495v-.81h-.012a1.369 1.369 0 0 1-.566.622c-.265.157-.56.235-.884.235ZM91.81 17.789c.534 0 .968.2 1.304.597.333.399.499.92.499 1.564 0 .645-.166 1.168-.499 1.568-.33.398-.762.597-1.297.597-.332 0-.629-.085-.888-.255a1.458 1.458 0 0 1-.558-.664h-.012v2.26h-.518v-5.62h.49v.876h.013a1.43 1.43 0 0 1 .565-.664c.27-.173.57-.26.9-.26Zm-.091 3.859c.409 0 .739-.155.99-.464.249-.312.373-.722.373-1.23s-.124-.92-.373-1.234a1.21 1.21 0 0 0-.99-.467 1.2 1.2 0 0 0-.983.471c-.254.317-.38.726-.38 1.226 0 .503.127.912.38 1.226a1.2 1.2 0 0 0 .983.472ZM97.716 22.07h-.688l-2.075-2.072h-.023v2.071h-.516v-4.232h.516v1.905h.023l2.024-1.905h.66L95.48 19.85l2.236 2.22ZM99.885 18.249c-.38 0-.692.13-.935.389-.247.257-.382.595-.406 1.017h2.633c-.005-.422-.125-.76-.361-1.017-.238-.26-.549-.39-.931-.39Zm1.78 2.621a1.355 1.355 0 0 1-.574.892c-.322.236-.711.353-1.167.353-.587 0-1.053-.192-1.399-.577-.346-.388-.519-.913-.519-1.576 0-.657.172-1.184.515-1.58.346-.395.803-.593 1.372-.593.555 0 .999.186 1.332.558.33.374.495.876.495 1.505v.228h-3.175v.027c0 .477.127.854.38 1.132.253.278.59.417 1.011.417.312 0 .578-.073.798-.22a.955.955 0 0 0 .416-.566h.515ZM105.5 18.273h-1.446v3.796h-.515v-3.796h-1.446v-.436h3.407v.436ZM106.164 22.07v-4.233h.515v3.423h.024l2.404-3.423h.516v4.232h-.516v-3.422h-.027l-2.401 3.422h-.515ZM113.521 20.089h-2.374v1.98h-.515v-4.232h.515v1.816h2.374v-1.816h.514v4.232h-.514v-1.98ZM115.564 18.273v3.796h-.515v-4.232h2.684v.436h-2.169ZM120.276 22.07v-4.233h.515v3.423h.024l2.404-3.423h.515v4.232h-.515v-3.422h-.027l-2.401 3.422h-.515ZM129.378 18.273h-2.335v3.796h-.515v-4.232h3.364v4.232h-.514v-3.796ZM132.875 17.789c.535 0 .969.2 1.305.597.332.399.499.92.499 1.564 0 .645-.167 1.168-.499 1.568-.33.398-.763.597-1.297.597-.333 0-.629-.085-.889-.255a1.46 1.46 0 0 1-.557-.664h-.012v2.26h-.519v-5.62h.492v.876h.011c.113-.272.302-.494.566-.664.27-.173.57-.26.9-.26Zm-.09 3.859c.408 0 .738-.155.99-.464.249-.312.373-.722.373-1.23s-.124-.92-.373-1.234a1.211 1.211 0 0 0-.99-.467 1.2 1.2 0 0 0-.983.471c-.254.317-.381.726-.381 1.226 0 .503.127.912.381 1.226a1.2 1.2 0 0 0 .983.472ZM137.19 22.115c-.582 0-1.047-.196-1.396-.59-.35-.39-.526-.915-.526-1.575 0-.657.176-1.183.526-1.575.349-.391.814-.586 1.396-.586.584 0 1.05.195 1.399.585.351.393.526.919.526 1.576 0 .658-.175 1.183-.526 1.576-.349.393-.815.59-1.399.59Zm0-.467c.432 0 .772-.151 1.021-.452.25-.304.374-.72.374-1.246s-.124-.942-.374-1.245c-.249-.302-.589-.452-1.021-.452-.43 0-.769.15-1.018.452-.249.303-.373.719-.373 1.245 0 .527.124.942.373 1.246.249.3.588.452 1.018.452ZM142.809 18.273h-1.839c-.039.75-.088 1.408-.145 1.976-.055.664-.182 1.117-.382 1.36v.024h2.366v-3.36Zm-3.325 4.916v-1.556h.342c.284-.183.455-.65.515-1.403.079-.97.134-1.767.165-2.393h2.822v3.796h.683v1.556h-.487v-1.12h-3.552v1.12h-.488ZM146 21.66c.38 0 .697-.114.951-.343.257-.224.385-.505.385-.84v-.468l-1.238.087c-.726.047-1.088.313-1.088.797a.67.67 0 0 0 .275.555c.183.14.422.212.715.212Zm-.102.455c-.422 0-.764-.112-1.026-.337a1.122 1.122 0 0 1-.393-.889c0-.736.519-1.14 1.557-1.214l1.3-.087v-.36c0-.31-.093-.55-.279-.72-.189-.17-.453-.255-.794-.255-.296 0-.541.07-.734.212a.922.922 0 0 0-.362.593h-.499c.021-.372.182-.676.483-.912.299-.238.671-.357 1.116-.357.485 0 .871.125 1.159.377.286.252.429.591.429 1.018v2.884h-.496v-.81h-.011a1.369 1.369 0 0 1-.566.622c-.265.157-.56.235-.884.235ZM154.123 22.07h-.684l-1.898-2.072h-.024v2.071h-.514V20h-.024l-1.898 2.07h-.668l2.047-2.208-1.984-2.024h.656l1.847 1.905h.024v-1.905h.514v1.905h.024l1.847-1.905h.652l-1.977 2.012 2.06 2.22ZM154.732 22.07v-4.233h.515v3.423h.023l2.405-3.423h.515v4.232h-.515v-3.422h-.027l-2.401 3.422h-.515Z" fill="#fff"/><path fill-rule="evenodd" clip-rule="evenodd" d="m20.078 14.893.062-.245 1.777 5.454-.215.306v-.03l-.061.122c-5.117 6.802-15.963 5.484-19.976-1.44-4.259-7.353.061-17.066 8.395-18.812a15.053 15.053 0 0 1 2.635-.245c3.952 0 8.119 1.716 10.233 5.178L24.582.677h5.147l-3.89 10.815 2.512 6.986c.275.704 1.041 1.103 1.746.919l.214-.061 1.38 4.626-1.655.429c-2.36.582-4.78-.613-5.668-2.88a8.22 8.22 0 0 1-.582-1.287l-.92-2.42-.06-.092v-.03l-2.054-6.22c-1.133-3.432-3.247-5.086-4.932-5.76-.92-.43-1.961-.644-3.064-.644-4.259 0-7.69 3.401-7.69 7.568s3.431 7.568 7.69 7.568c3.431 0 6.342-2.237 7.322-5.3Z" fill="url(#ga)"/><defs><linearGradient id="ga" x1=".041" y1=".352" x2="30.679" y2=".352" gradientUnits="userSpaceOnUse"><stop stop-color="#7A5FFF"/><stop offset="1" stop-color="#00E824"/></linearGradient></defs></svg><svg fill="none" viewBox="0 0 32 32" id="footer-phone" xmlns="http://www.w3.org/2000/svg"><g clip-path="url(#ha)"><circle cx="16" cy="16" r="15.75" stroke="#21A038" stroke-width=".5"/><path d="M14.57 15.56a.474.474 0 1 1-.948 0 .474.474 0 0 1 .947 0ZM16.647 15.56a.474.474 0 1 1-.947 0 .474.474 0 0 1 .947 0ZM18.725 15.56a.474.474 0 1 1-.947 0 .474.474 0 0 1 .947 0ZM14.095 16.995a.474.474 0 1 0 0 .948.474.474 0 0 0 0-.948ZM16.173 16.995a.474.474 0 1 0 0 .948.474.474 0 0 0 0-.948ZM18.251 16.995a.474.474 0 1 0 0 .948.474.474 0 0 0 0-.948ZM14.57 19.267a.474.474 0 1 1-.948 0 .474.474 0 0 1 .947 0ZM16.647 19.267a.474.474 0 1 1-.947 0 .474.474 0 0 1 .947 0ZM18.725 19.267a.474.474 0 1 1-.947 0 .474.474 0 0 1 .947 0Z" fill="#21A038"/><path d="m24.331 12.6-.005-.014C23.633 10.49 21.693 9.003 19.405 9h-6.74a5.176 5.176 0 0 0-4.906 3.55l-.01.037-.005.013a5.03 5.03 0 0 0-.244 1.566c0 .372.302.674.674.674h2.999l-1.38 2.297a5.598 5.598 0 0 0-.808 2.912v.642a1.619 1.619 0 0 0 1.617 1.617h11.285a1.619 1.619 0 0 0 1.617-1.617v-.01a6.838 6.838 0 0 0-1.254-3.958l.014.022-1.328-1.905h2.973a.668.668 0 0 0 .667-.667c0-.562-.09-1.102-.256-1.608l.01.036.001-.001ZM12.665 9.561h6.74a4.616 4.616 0 0 1 4.251 2.828l.011.03h-3.903a2.403 2.403 0 0 0-1.816-.826H14.043a2.41 2.41 0 0 0-1.808.824l-.002.003H8.407c.707-1.69 2.346-2.856 4.257-2.858l.001-.001Zm-4.604 4.604c.002-.422.06-.829.168-1.216l-.008.032h3.642a2.345 2.345 0 0 0-.224.819l-.001.009a1.265 1.265 0 0 1-.143.475l.003-.007H8.173a.113.113 0 0 1-.113-.113l.001.001Zm14.882 6.525a1.057 1.057 0 0 1-1.055 1.055H10.603a1.057 1.057 0 0 1-1.055-1.055v-.642c0-.969.271-1.875.74-2.646l-.013.023 1.587-2.643a.277.277 0 0 0 .116-.2c.117-.21.196-.458.22-.72l.001-.007a1.863 1.863 0 0 1 1.845-1.7h3.903c.989 0 1.799.777 1.849 1.754v.004c.01.199.076.381.183.532l-.002-.003 1.829 2.623a6.255 6.255 0 0 1 1.139 3.616v.01l-.002-.001Zm.967-6.413h-3.365l-.109-.157a.448.448 0 0 1-.081-.235v-.001a2.409 2.409 0 0 0-.231-.918l.006.015h3.723c.101.357.16.767.162 1.19v.001a.105.105 0 0 1-.105.105Z" fill="#21A038"/></g><defs><clipPath id="ha"><path fill="#fff" d="M0 0h32v32H0z"/></clipPath></defs></svg><svg fill="none" viewBox="0 0 60 30" id="logo" xmlns="http://www.w3.org/2000/svg"><g clip-path="url(#ia)" fill="#fff"><path d="M42.758 13.577a2.305 2.305 0 0 1-.346-.961 5.188 5.188 0 0 1-.042-.384c-.016-.224.036-.442.086-.659.097-.42.16-.843.083-1.276a3.303 3.303 0 0 0-.773-1.654c-.19-.215-.423-.381-.656-.546-.263-.186-.512-.385-.67-.676-.01-.02-.028-.037-.041-.056-.146-.223-.286-.448-.34-.714-.017-.088-.033-.177-.054-.264-.058-.247-.1-.5-.18-.738-.172-.503-.49-.912-.883-1.263a2.827 2.827 0 0 0-1.308-.673c-.137-.03-.274-.061-.41-.095a1.725 1.725 0 0 1-.573-.228c-.12-.081-.237-.166-.359-.242a1.643 1.643 0 0 1-.476-.478l-.282-.417a2.7 2.7 0 0 0-.719-.731c-.546-.37-1.145-.588-1.81-.588a4.97 4.97 0 0 0-.65.074c-.166.022-.331.054-.497.078-.221.031-.436-.022-.65-.058a2.034 2.034 0 0 1-.867-.333 4.223 4.223 0 0 0-.295-.192c-.137-.082-.273-.167-.417-.236A2.907 2.907 0 0 0 28.356 0C27.798 0 27.27.119 26.793.418c-.122.076-.242.158-.365.233-.12.074-.242.144-.363.214a.666.666 0 0 1-.476.072C25.398.9 25.206.865 25.017.82a2.894 2.894 0 0 0-1.369-.033c-.634.147-1.2.42-1.644.909-.133.147-.247.311-.372.467-.1.125-.202.248-.304.37a.491.491 0 0 1-.309.177c-.196.03-.391.071-.59.09a3.01 3.01 0 0 0-1.602.625c-.537.418-.922.938-1.104 1.6a7.931 7.931 0 0 1-.116.38c-.153.491-.49.904-.94 1.15-.167.094-.334.187-.499.285-.2.114-.383.258-.54.426-.69.754-1.01 1.628-.867 2.655.032.236.06.475.008.712-.04.182-.099.36-.145.542a1.596 1.596 0 0 1-.278.563c-.121.162-.247.322-.37.484a2.49 2.49 0 0 0-.435.876 4.12 4.12 0 0 0-.114.584c-.063.574.004 1.13.27 1.653.084.167.174.331.262.497.082.155.168.314.188.489.026.224.112.437.1.668-.005.1.024.201.028.302.012.23-.046.45-.101.67-.078.314-.16.628-.165.957.02.174.03.35.062.522.1.577.356 1.116.74 1.556.189.212.416.38.64.55.24.174.444.394.6.646.164.262.27.556.314.861.04.298.07.6.179.882.384.988 1.061 1.667 2.094 1.967.21.061.421.116.628.186.285.093.529.284.688.538.095.152.19.305.275.463a2.94 2.94 0 0 0 1.206 1.21c.43.236.885.396 1.38.399.23.001.46-.025.69-.042.218-.017.435-.053.653-.01.115.022.229.05.342.079.285.072.562.163.797.35.107.085.22.163.327.248.432.347.955.563 1.506.62.615.07 1.208.003 1.762-.293.169-.09.336-.184.504-.274.16-.093.333-.158.514-.191.196-.03.393-.057.591-.08a.72.72 0 0 1 .21 0c.23.042.46.082.687.14.44.115.883.16 1.333.071.812-.16 1.494-.535 1.987-1.217.023-.032.048-.062.072-.093.19-.268.431-.495.71-.668.317-.19.638-.34 1.007-.385.225-.027.448-.068.668-.123.866-.219 1.814-1.05 2.087-2.017.03-.109.063-.217.09-.327.084-.331.197-.644.405-.926.211-.287.434-.55.748-.728.095-.054.186-.113.279-.172.19-.115.369-.25.53-.405.374-.38.65-.845.802-1.357.113-.338.154-.696.12-1.051-.027-.225-.058-.45-.084-.674a1.717 1.717 0 0 1 .013-.594c.034-.148.072-.295.104-.444.034-.16.097-.314.186-.452.098-.15.199-.299.303-.445a2.957 2.957 0 0 0 .588-1.77c.008-.484-.07-.95-.295-1.383a5.75 5.75 0 0 0-.293-.507Zm-.296 2.08c-.035.395-.18.772-.421 1.088-.13.175-.25.36-.365.544a2.033 2.033 0 0 0-.244.594c-.017.068-.044.133-.067.199a.264.264 0 0 0-.016.043c-.026.165-.05.33-.075.496-.026.23-.021.46.015.689.027.232.064.464.081.697.043.567-.32 1.452-.942 1.844l-.465.293c-.29.174-.54.404-.738.677-.02.028-.05.05-.071.077a1.971 1.971 0 0 0-.094.13c-.022.032-.035.07-.059.1-.183.24-.318.513-.398.804-.047.16-.094.322-.133.485-.141.59-.505 1.01-.997 1.337-.252.159-.535.26-.83.298-.25.04-.502.078-.747.142-.17.054-.337.12-.498.199-.079.033-.155.072-.232.108a.331.331 0 0 0-.051.028c-.092.066-.181.135-.275.197a2.55 2.55 0 0 0-.578.544c-.093.115-.187.23-.275.35-.288.395-.682.633-1.143.772a2.231 2.231 0 0 1-.637.098 2.33 2.33 0 0 1-.563-.084c-.252-.056-.501-.124-.756-.16-.179-.024-.365-.003-.548-.002-.03 0-.062.01-.093.01a.739.739 0 0 0-.174.004c-.273.078-.565.087-.822.22-.173.09-.348.178-.52.27-.21.113-.415.238-.651.287-.682.139-1.32.056-1.89-.375a16.97 16.97 0 0 0-.508-.376 2.223 2.223 0 0 0-.697-.327 1.553 1.553 0 0 1-.152-.058.408.408 0 0 0-.065-.026c-.164-.032-.328-.064-.493-.092a2.664 2.664 0 0 0-.69-.008c-.194.018-.388.04-.582.053-.446.029-.847-.112-1.224-.333a1.96 1.96 0 0 1-.73-.729 24.064 24.064 0 0 0-.301-.515 2.28 2.28 0 0 0-1.372-1.047c-.157-.045-.315-.092-.473-.132-.65-.162-1.094-.576-1.416-1.142-.149-.26-.194-.55-.236-.84-.04-.278-.074-.56-.185-.82-.214-.5-.495-.956-.935-1.295-.12-.093-.238-.19-.36-.28-.438-.32-.685-.76-.815-1.276a2.068 2.068 0 0 1 .006-1.02c.068-.248.122-.5.163-.754.021-.19.023-.382.005-.572a8.003 8.003 0 0 0-.04-.425c-.014-.122-.028-.242-.043-.343-.035-.348-.186-.635-.35-.94-.083-.154-.166-.309-.243-.467a1.948 1.948 0 0 1-.17-1.016c.012-.151.035-.302.069-.45.058-.257.171-.497.333-.704.128-.167.258-.333.383-.504.17-.239.301-.502.39-.781.052-.152.08-.306.125-.458.097-.323.09-.655.061-.987a70.21 70.21 0 0 0-.036-.409c-.045-.5.103-.948.368-1.364.173-.281.414-.514.702-.675.188-.104.375-.21.559-.32.25-.154.471-.35.656-.577.28-.333.483-.723.596-1.143.034-.124.077-.246.112-.37.182-.646.97-1.387 1.81-1.456.214-.018.426-.058.639-.087a1.522 1.522 0 0 0 1.02-.583c.122-.153.247-.303.358-.464.384-.557.93-.839 1.583-.94.29-.045.574.008.858.071.24.053.482.096.725.134.33.051.636-.04.92-.2.198-.111.391-.23.578-.358.6-.41 1.251-.468 1.938-.287.165.048.322.122.465.217.185.116.367.237.554.351.243.141.506.245.78.307.152.038.305.052.456.084.36.077.715.032 1.07-.032.23-.042.46-.1.695-.086.692.042 1.28.302 1.71.862.125.164.234.341.352.511.181.26.405.487.66.673.135.1.28.18.417.274.268.184.574.279.887.352.11.025.22.051.331.074.636.134 1.09.516 1.435 1.048.16.244.224.52.28.801.044.238.1.473.168.705.062.164.135.323.22.477.03.063.063.125.095.187.01.02.02.041.033.06.063.084.132.164.192.25.173.237.383.444.623.613.107.08.213.159.323.234.454.312.71.756.854 1.276.105.376.076.748-.012 1.123-.048.205-.08.413-.113.621a1.808 1.808 0 0 0 .026.652c-.024.173.06.327.086.49.048.298.178.565.33.822l.258.432c.242.406.295.85.256 1.31Z"/><path d="M36.48 14.987c-.002-4.48-3.638-8.09-8.067-8.11-4.512-.018-8.135 3.66-8.142 8.093-.007 4.433 3.6 8.12 8.102 8.12 4.467.003 8.107-3.637 8.107-8.103Zm-8.125 7.449c-4.13-.01-7.434-3.38-7.429-7.457a7.458 7.458 0 0 1 7.452-7.447c4.17.007 7.453 3.414 7.447 7.464-.006 4.04-3.29 7.45-7.47 7.44ZM36.916 9.982l-.408.142.034.114c.063.184.13.367.19.553a.165.165 0 0 0 .135.123c.586.148 1.171.302 1.756.454.04.01.079.022.118.034l.002.027c-.194.067-.386.138-.58.203-.198.065-.392.146-.598.198l-.078-.193-.411.145.337.968.413-.143-.084-.264c.517-.183 1.027-.36 1.54-.535l.102.26.411-.143-.03-.107c-.064-.184-.134-.367-.19-.554a.188.188 0 0 0-.16-.142c-.594-.146-1.188-.296-1.782-.446-.034-.008-.067-.02-.1-.03l-.002-.027 1.194-.413.081.189.412-.143-.33-.953-.413.143.074.252-1.54.533-.093-.245ZM35.029 7.467l-.34.265c.022.032.038.058.057.082.124.16.253.318.373.481a.161.161 0 0 0 .167.072c.183-.018.366-.03.549-.044l1.074-.084c.102-.007.206-.012.309-.018l.01.025-.981.766-.142-.163-.342.268.632.81.343-.268-.164-.226c.431-.338.855-.672 1.287-1.003l.177.215.342-.268c-.024-.035-.04-.061-.058-.085-.127-.164-.256-.326-.38-.49a.146.146 0 0 0-.148-.065c-.568.051-1.136.097-1.703.144-.088.007-.176.011-.264.016a1.386 1.386 0 0 1-.013-.024c.332-.258.662-.52 1-.779l.136.153.344-.267-.621-.796-.346.27c.058.077.105.142.156.212L35.196 7.67l-.167-.203ZM17.47 11.83c.522.18 1.035.348 1.546.53l-.077.248.413.14.345-1.012-.413-.14-.097.25-1.546-.527c.11-.343.223-.672.341-1.006l1.55.527-.079.252.416.141.342-1.013-.413-.14-.093.25-1.549-.527.08-.256-.414-.139-.858 2.527.411.14.094-.245ZM28.779 5.344c.19.012.381.029.573.03a.735.735 0 0 0 .734-.599c.046-.225.008-.427-.175-.585a.173.173 0 0 1-.028-.039c.06-.054.114-.112.164-.174.114-.166.12-.354.077-.54-.077-.335-.344-.555-.706-.584-.362-.029-.724-.05-1.086-.075-.042-.003-.084 0-.132 0-.021.142-.03.286-.024.43l.246.034c-.035.548-.067 1.082-.11 1.622h-.257l-.025.424c.038.005.06.01.083.011.222.016.444.032.666.045Zm.187-2.073c.145.01.277.01.407.028.16.023.258.23.195.398a.249.249 0 0 1-.267.181c-.109-.004-.218-.014-.326-.023a.314.314 0 0 1-.05-.014l.04-.57Zm-.07 1.027c.159.01.298.018.437.029.023.002.046.01.066.02.113.054.169.201.136.355a.263.263 0 0 1-.267.228c-.124-.004-.248-.016-.372-.026a.167.167 0 0 1-.04-.018l.04-.588ZM32.782 5.89c-.087.12-.168.235-.245.36l.876.603.247-.36-.215-.16.49-.713c.016.052.026.076.03.102.059.31.113.622.176.931a.247.247 0 0 1-.047.218c-.073.095-.137.197-.21.305l.678.466.268-.39a.457.457 0 0 0-.076-.059.196.196 0 0 1-.107-.168c-.053-.311-.11-.622-.166-.933a.813.813 0 0 1-.005-.104c.056-.009.102-.018.148-.023.248-.027.497-.05.745-.08.13-.017.257-.042.363.084l.273-.398-.697-.478c-.082.117-.157.22-.227.329a.161.161 0 0 1-.132.079c-.303.032-.605.07-.907.106-.032.001-.063 0-.095-.004l.421-.613.227.141.247-.36-.881-.604-.247.36.203.153c-.116.213-.864 1.285-.935 1.339l-.2-.13ZM18.85 8.652l1.3.904-.144.223.358.25 1.142-1.646-.732-.508-.3.432.369.26-.383.55-.495-.346.282-.418-.38-.263-.291.411-.424-.295c.132-.19.251-.37.383-.547l.297.199.297-.432-.695-.482-1.142 1.644.395.275.162-.211ZM26.35 5.56c.436.002.762-.146.984-.408.487-.573.393-1.475-.203-1.945a1.165 1.165 0 0 0-1.591.115c-.376.395-.455 1.043-.182 1.549.23.428.588.665.993.69Zm-.497-1.789a.604.604 0 0 1 .915-.176.94.94 0 0 1 .234 1.116.609.609 0 0 1-.969.168.92.92 0 0 1-.284-.681.84.84 0 0 1 .104-.427ZM30.961 5.687a1.148 1.148 0 0 0 1.448-.054c.047-.043.086-.095.135-.149l-.444-.3c-.035.03-.058.05-.083.069-.362.283-.839.13-.972-.311a.838.838 0 0 1-.013-.44c.065-.276.208-.496.47-.62.288-.138.662-.03.773.246a.37.37 0 0 0 .291.242c.027.006.052.018.078.026l.183.054.17-.514c-.089-.03-.165-.06-.243-.082a.253.253 0 0 1-.162-.122.706.706 0 0 0-.281-.274 1.16 1.16 0 0 0-1.006-.063c-.522.203-.863.745-.838 1.327.016.397.173.725.494.965ZM22.024 7.783c.53-.112.968-.638.898-1.24a.583.583 0 0 0-.085-.279l-.475.223.016.096a.595.595 0 0 1-.684.7c-.415-.057-.766-.463-.761-.882.004-.371.316-.672.686-.601a.212.212 0 0 0 .207-.064c.068-.064.142-.122.212-.184.022-.02.041-.043.065-.069l-.35-.405c-.08.067-.148.123-.215.183a.203.203 0 0 1-.136.053.813.813 0 0 0-.373.085c-.21.11-.38.28-.488.491-.233.477-.18.938.13 1.357.335.451.79.655 1.354.536ZM23.072 4.915l-.137-.298.29-.14.723 1.485-.232.124c.067.135.124.265.195.39l.488-.238c.155-.077.316-.143.467-.235l-.19-.386-.243.11-.724-1.489.33-.156.149.29.474-.231-.33-.678-2.062 1.004.33.677.471-.229ZM29.88 25.517l.256-.02v-.383h-.107c-.164.007-.328.018-.491.02a.179.179 0 0 0-.163.087c-.15.22-.305.435-.458.651-.02.027-.043.051-.068.081l-.056-.06c-.18-.211-.36-.422-.537-.635a.142.142 0 0 0-.13-.059c-.12.007-.242.007-.363.013-.08.003-.16.013-.238.02 0 .077-.002.14.001.202.003.06.013.12.02.18h.244l.03.73-.255.02.02.387.86-.039v-.378l-.177-.016-.023-.439.029-.01.605.689.276-.378c.088-.12.172-.245.266-.36l.027.01.019.44-.165.02.022.385.857-.04v-.39h-.27l-.03-.728ZM30.89 24.917c-.018.017-.037.031-.064.054a.296.296 0 0 1 .07-.302.718.718 0 0 1 .315-.194c.13-.043.261-.082.391-.123.05-.016.1-.034.154-.053l-.125-.443-.34.095a.055.055 0 0 0-.034.025c.012.085-.06.08-.105.098-.149.05-.288.122-.414.214-.253.2-.377.461-.314.781.053.256.121.508.203.756a.768.768 0 0 0 .154.259c.318.367.864.284 1.148.025.267-.244.33-.613.164-.967a.738.738 0 0 0-1.203-.225Zm.502 1.011c-.215.006-.41-.194-.412-.422a.402.402 0 0 1 .391-.399c.211 0 .376.19.378.437a.367.367 0 0 1-.357.384ZM36.252 23.15l-.472-.562.159-.15-.247-.293-.67.566.247.293.17-.13.123.15-.512.43-.126-.155.155-.133-.248-.296-.672.565.248.294.18-.137.472.564-.165.153.247.294.671-.565-.248-.295-.165.128-.157-.19.514-.432.155.19-.155.145.247.294.67-.566-.246-.293-.175.13ZM34.278 24.678l-.333-.647.155-.096-.18-.341c-.147.077-.283.152-.424.217a.19.19 0 0 0-.118.157c-.058.33-.122.659-.185.988a.963.963 0 0 1-.032.097l-.252-.488.153-.097-.175-.34-.724.376.176.34.176-.075.336.65-.158.098c.057.121.113.23.177.338.148-.076.281-.151.42-.213a.211.211 0 0 0 .13-.175c.059-.322.124-.643.188-.964.009-.03.02-.061.033-.09.089.17.171.316.24.471l-.158.1.177.339.724-.377-.177-.336-.169.068ZM19.364 20.587l.338-.172-.785-1.546c-.117.051-.23.11-.34.174l.092.2c-.124.057-.235.114-.351.158-.196.074-.35.023-.47-.147-.025-.034-.047-.069-.076-.11l-.337.174c.043.084.078.154.115.223a.617.617 0 0 0 .687.327c.18-.035.355-.096.518-.18.037-.019.075-.033.117-.052.066.13.13.243.184.37l-.662.335-.103-.192c-.19.073-.288.13-.335.194l.412.814a2.7 2.7 0 0 0 .345-.173l-.115-.246c.226-.115.438-.227.659-.331l.107.18ZM24.713 24.85c-.046.118-.162.15-.255.211a.063.063 0 0 1-.044-.005c-.043-.016-.085-.035-.136-.056l.224-.584-.633-.246-.137.36.108.046.108.05-.267.685-.225-.079-.14.36.78.304.14-.357-.14-.071.07-.17a.196.196 0 0 1 .196.163c.056.182.122.362.188.541.01.037.031.069.062.09.109.051.222.09.342.138l.14-.361c-.054-.022-.098-.037-.14-.058a.149.149 0 0 1-.07-.054c-.061-.138-.116-.279-.177-.426.141-.081.268-.157.398-.226a.156.156 0 0 1 .099.004c.055.014.107.036.167.057l.138-.358-.675-.262-.12.305ZM39.79 15.86c-.102-.004-.204-.001-.305-.001-.17-.001-.197-.02-.25-.186a599.338 599.338 0 0 0-.09-.278.138.138 0 0 0-.134-.096.135.135 0 0 0-.133.099c-.036.103-.068.207-.103.31-.042.124-.075.149-.203.15-.11.002-.219-.001-.328.002a.144.144 0 0 0-.155.1c-.02.065 0 .117.068.171.086.068.174.132.26.2.108.082.122.123.084.251-.032.108-.07.215-.101.324a.14.14 0 0 0 .053.176.138.138 0 0 0 .173-.014l.2-.145c.175-.129.195-.13.368-.005.067.048.133.097.2.143.073.049.13.05.184.01.055-.04.067-.093.043-.18l-.017-.055c-.028-.085-.057-.17-.083-.256-.035-.118-.02-.167.08-.244.088-.07.178-.138.269-.206a.148.148 0 0 0 .072-.113.147.147 0 0 0-.04-.113.144.144 0 0 0-.113-.044ZM17.854 16.872c.084.057.165.118.248.176.09.062.145.068.203.022.071-.056.06-.128.036-.202-.031-.092-.06-.185-.089-.279-.04-.134-.028-.175.083-.26.09-.07.182-.136.27-.207.084-.069.093-.16.018-.219a.242.242 0 0 0-.129-.042c-.105-.006-.21-.001-.316-.002-.129-.002-.16-.025-.203-.15-.035-.103-.067-.207-.102-.31a.14.14 0 0 0-.266-.005c-.01.025-.018.05-.027.077l-.087.266a.159.159 0 0 1-.166.122h-.351a.154.154 0 0 0-.16.096c-.025.064-.002.12.073.18.083.065.168.128.251.192.116.089.128.128.084.27-.032.101-.068.2-.094.302a.222.222 0 0 0 .005.134c.035.08.127.096.209.04.094-.062.183-.132.275-.197a.172.172 0 0 1 .235-.004ZM38.461 20.144c-.227-.119-.447-.231-.665-.362l.126-.224.26.127.204-.382-.588-.315-.87 1.624c.2.108.389.214.589.314l.202-.38-.254-.144.122-.222c.226.122.447.234.661.36l-.102.213.338.181.449-.836-.34-.18-.132.226ZM37.595 21.591l-.165-.127c-.12-.093-.236-.193-.362-.278-.22-.149-.43-.135-.636.033a1.067 1.067 0 0 0-.322.44.93.93 0 0 0-.08.37l.288.062.035-.112a.842.842 0 0 1 .263-.395c.111-.088.204-.078.307.027-.056.06-.107.114-.157.17a.895.895 0 0 0-.231.387.431.431 0 0 0 .139.455.426.426 0 0 0 .48.082.88.88 0 0 0 .227-.159.59.59 0 0 0 .188-.396.216.216 0 0 0 .099-.022c.122-.146.238-.297.362-.452l-.301-.24-.134.155Zm-.333.551a.593.593 0 0 1-.107.15.16.16 0 0 1-.254-.195.759.759 0 0 1 .075-.103c.05-.064.102-.127.154-.19a.106.106 0 0 1 .027-.015c.178.119.194.169.105.353ZM19.484 21.549l.7.884a1.21 1.21 0 0 0 .31-.32.676.676 0 0 0 .111-.34c.007-.32-.147-.556-.413-.711-.518-.304-1.09.085-1.2.54a.739.739 0 0 0-.017.255c.043.367.355.71.732.809l.126-.288c-.042-.029-.079-.05-.11-.078-.078-.064-.157-.128-.229-.2a.428.428 0 0 1-.125-.27.278.278 0 0 1 .115-.281Zm.66-.073c.115.143.111.269-.02.405l-.395-.5c.151-.09.298-.053.416.095ZM26.318 24.936a.796.796 0 0 0-.745.505.8.8 0 0 0-.056.311c0 .425.305.794.831.798.539.003.795-.438.795-.808.003-.453-.354-.802-.825-.806Zm.01 1.212a.373.373 0 0 1-.357-.238.374.374 0 0 1-.026-.149c-.002-.245.163-.426.386-.425a.362.362 0 0 1 .359.233c.018.048.025.1.021.15-.002.287-.205.444-.383.429ZM22.578 23.465c-.41-.01-.809.337-.816.826-.006.425.391.799.835.802.43.002.797-.371.799-.816.002-.438-.37-.801-.818-.812Zm-.014 1.22a.375.375 0 0 1-.373-.384c0-.23.188-.431.403-.433a.382.382 0 0 1 .383.375c-.002.23-.198.44-.413.441ZM22.093 23.174a1.048 1.048 0 0 0-.1-.104.428.428 0 0 1-.147-.204.758.758 0 0 0-.243-.323c-.247-.208-.523-.263-.818-.134a.797.797 0 0 0-.504.718c-.03.5.451.927.949.85a.42.42 0 0 0 .247-.101c-.035-.056-.068-.109-.102-.16l-.103-.16c-.072.013-.146.02-.22.021a.382.382 0 0 1-.352-.426c.028-.227.245-.404.459-.376a.43.43 0 0 1 .358.366.2.2 0 0 0 .033.106c.082.082.172.157.264.239l.28-.312ZM40.095 10.71a.3.3 0 0 1-.123-.062.376.376 0 0 1-.051-.505l.032-.046-.129-.366c-.176.134-.297.284-.31.499a.916.916 0 0 0 .214.65c.141.172.331.232.569.215-.038-.109-.073-.2-.099-.292a.119.119 0 0 0-.103-.093Z"/><path d="M30.23 15.438a4.521 4.521 0 0 0-.441-.215c-.074-.034-.153-.055-.237-.084.005-.082.01-.16.013-.237.006-.16-.069-.236-.228-.247a1.698 1.698 0 0 1-.289-.037c-.433-.104-.791-.344-1.122-.63-.056-.05-.061-.09-.017-.166.09-.155.176-.314.28-.46.36-.498.775-.952 1.24-1.353.296-.261.602-.51.959-.687a.3.3 0 0 0 .075-.055c.158-.157.317-.312.472-.473a.324.324 0 0 0 .08-.349.322.322 0 0 0-.066-.106 11.197 11.197 0 0 0-.538-.54.325.325 0 0 0-.457.007c-.029.026-.056.055-.083.082l-2.841 2.843a.254.254 0 0 1-.178.097.38.38 0 0 0-.257.126c-.279.28-.56.556-.836.838a.425.425 0 0 0-.101.478.428.428 0 0 0 .097.142c.179.186.363.367.547.548a.386.386 0 0 0 .34.122c.114-.02.166.032.21.126l-.12.053c-.183.07-.352.17-.503.293a.781.781 0 0 0-.293.624c.003 1.258.002 2.516.002 3.773a.548.548 0 0 0 .012.128.197.197 0 0 0 .254.138.198.198 0 0 0 .089-.06.225.225 0 0 0 .053-.162v-.574c0-.033.005-.066.01-.108l.073.03c.268.139.554.238.85.295.03.007.06.011.092.012a.2.2 0 0 0 .18-.297.2.2 0 0 0-.105-.09c-.043-.017-.091-.02-.136-.035-.196-.063-.395-.12-.588-.195a1.103 1.103 0 0 1-.256-.16.302.302 0 0 1-.122-.266c.005-.187.001-.375.002-.562a.707.707 0 0 1 .012-.09c.124.06.233.12.348.168.51.211 1.044.284 1.591.284a.28.28 0 0 0 .047-.003.199.199 0 0 0 .16-.138.189.189 0 0 0-.045-.195.218.218 0 0 0-.168-.068c-.195-.01-.39-.02-.584-.04a2.997 2.997 0 0 1-.86-.217 1.292 1.292 0 0 1-.368-.225.312.312 0 0 1-.127-.204c-.008-.174-.002-.348-.002-.54.101.054.184.102.272.141a3.114 3.114 0 0 0 .828.248 4.769 4.769 0 0 0 .861.072 4.592 4.592 0 0 0 1.16-.134 3.024 3.024 0 0 0 .54-.19c.086-.04.17-.086.256-.13a.237.237 0 0 1 .011.039l.002 1.078a.285.285 0 0 1-.09.21c-.058.058-.121.11-.189.155a1.836 1.836 0 0 1-.492.214c-.075.021-.151.039-.226.061a.19.19 0 0 0-.148.163.2.2 0 0 0 .257.226c.276-.058.54-.157.786-.296.028-.016.058-.028.102-.05v1.356a.863.863 0 0 0 .004.117.2.2 0 0 0 .395-.003c.004-.043.005-.086.004-.129v-2.683c0-.367-.003-.734 0-1.101a.667.667 0 0 0-.193-.487 1.286 1.286 0 0 0-.26-.216Zm-1.096-.385a.514.514 0 0 1 0 .092 1.477 1.477 0 0 1-.434.8.23.23 0 0 1-.177.071c-.241-.004-.482-.001-.736-.001a3.467 3.467 0 0 0-.708-1.188l.554-.552c.431.37.91.676 1.501.778Zm1.079-4.888.302.307c.024.024.047.05.077.082-.021.025-.038.05-.059.071a2.675 2.675 0 0 1-.612.5c-.31.177-.578.413-.84.653-.438.39-.835.824-1.184 1.294-.076.104-.146.211-.212.308l-.345-.343 2.873-2.872Zm-3.614 4.519c-.19-.187-.382-.378-.56-.561l.88-.88c.202.17.39.358.562.559-.044.078-.775.814-.882.882Zm3.634 1.561a.984.984 0 0 1-.202.193c-.195.13-.414.221-.644.268-.807.188-1.61.182-2.402-.076a1.462 1.462 0 0 1-.456-.236c-.239-.188-.242-.364-.007-.552.168-.128.36-.221.565-.274a.157.157 0 0 1 .043.002c.089.133.16.277.213.428-.038.01-.067.015-.095.025a.208.208 0 0 0-.142.207.205.205 0 0 0 .184.184c.035.003.07.003.105.002h1.839a.84.84 0 0 0 .105-.003.2.2 0 0 0-.003-.397c-.04-.005-.082-.006-.133-.01l.255-.465c.251.074.495.163.694.344.032.029.06.062.083.098a.21.21 0 0 1-.002.262Z"/><path d="M30.945 14.604c-.105-.01-.21-.01-.314.002a.198.198 0 0 0-.115.338.208.208 0 0 0 .136.06c.046.004.093 0 .14 0 .043 0 .086.003.129 0a.206.206 0 0 0 .201-.19.197.197 0 0 0-.177-.21ZM29.433 13.102a.195.195 0 0 0-.21.176 1.39 1.39 0 0 0-.002.303.198.198 0 0 0 .217.183.203.203 0 0 0 .186-.205c.002-.042 0-.085 0-.128s.002-.086 0-.129a.205.205 0 0 0-.19-.2ZM30.468 13.537a.163.163 0 0 0-.07.023c-.099.086-.192.18-.278.279-.055.068-.026.171.039.233a.184.184 0 0 0 .245.021c.087-.072.168-.152.24-.238a.175.175 0 0 0 .013-.208.206.206 0 0 0-.19-.11ZM35.566 14.866a.1.1 0 0 0-.1.116.099.099 0 0 0 .144.089.102.102 0 0 0 .057-.1.105.105 0 0 0-.028-.074.101.101 0 0 0-.073-.031ZM21.264 13.996a.105.105 0 0 0 .104-.101.112.112 0 0 0-.097-.098.103.103 0 0 0-.095.063.101.101 0 0 0-.008.039.102.102 0 0 0 .096.097ZM23.6 20.26a.105.105 0 0 0-.104.1.113.113 0 0 0 .097.099.103.103 0 0 0 .102-.103.098.098 0 0 0-.094-.096ZM21.37 16.09a.1.1 0 0 0-.172-.066.1.1 0 0 0 .004.142.1.1 0 0 0 .141-.005.099.099 0 0 0 .027-.071ZM33.557 19.87a.11.11 0 0 0-.101.106.1.1 0 0 0 .168.067.098.098 0 0 0 .004-.14.103.103 0 0 0-.071-.033ZM33.926 19.461a.1.1 0 0 0-.102.09.104.104 0 0 0 .096.11.11.11 0 0 0 .103-.093.105.105 0 0 0-.097-.107ZM24.458 9.053a.105.105 0 0 0 .098-.096.107.107 0 0 0-.102-.104.105.105 0 0 0-.097.096.102.102 0 0 0 .029.073.1.1 0 0 0 .072.03ZM25.43 21.455a.097.097 0 0 0-.09.1.104.104 0 0 0 .097.098.109.109 0 0 0 .103-.104.104.104 0 0 0-.11-.094ZM31.81 21.203a.1.1 0 0 0-.096.097.1.1 0 0 0 .091.102.104.104 0 0 0 .109-.097.106.106 0 0 0-.105-.102ZM27.018 21.949a.1.1 0 1 0-.011.2.1.1 0 0 0 .01-.2ZM25.932 8.32a.115.115 0 0 0 .1-.097.104.104 0 0 0-.103-.104.096.096 0 0 0-.071.032.1.1 0 0 0-.026.074.107.107 0 0 0 .1.094ZM28.631 7.897a.103.103 0 0 0 .102-.102.102.102 0 0 0-.033-.071.099.099 0 0 0-.074-.026.106.106 0 0 0-.092.101.111.111 0 0 0 .097.098ZM21.94 18.084a.105.105 0 0 0-.108.1.108.108 0 0 0 .096.1.1.1 0 0 0 .011-.2ZM28.657 22.07a.108.108 0 0 0-.101.095.104.104 0 0 0 .1.105.1.1 0 0 0 .1-.093.105.105 0 0 0-.1-.107ZM29.733 8.02a.106.106 0 0 0 .096-.1.105.105 0 0 0-.106-.101.102.102 0 0 0-.094.099.102.102 0 0 0 .03.073.102.102 0 0 0 .074.028ZM35.05 17.571a.104.104 0 0 0-.102.104.098.098 0 0 0 .095.096.103.103 0 0 0 .104-.1.114.114 0 0 0-.097-.1ZM35.443 14.413a.102.102 0 0 0 .095.099.105.105 0 0 0 .106-.1.109.109 0 0 0-.03-.067.108.108 0 0 0-.066-.033.106.106 0 0 0-.105.101ZM32.302 20.922a.1.1 0 1 0-.033.198.1.1 0 0 0 .033-.198ZM35.545 15.434a.108.108 0 0 0-.1.095.1.1 0 1 0 .1-.095ZM34.258 19.021a.1.1 0 0 0-.101.1.1.1 0 0 0 .1.101.105.105 0 0 0 .1-.093.106.106 0 0 0-.099-.108ZM24.945 21.206a.104.104 0 0 0-.098.098.1.1 0 0 0 .093.101.103.103 0 0 0 .106-.102.11.11 0 0 0-.1-.097ZM30.81 21.653a.107.107 0 0 0-.1.094.1.1 0 0 0 .165.08.1.1 0 0 0 .035-.067.108.108 0 0 0-.1-.107ZM29.751 21.947a.101.101 0 0 0-.072.03.1.1 0 0 0-.028.072.103.103 0 0 0 .096.097.108.108 0 0 0 .102-.105.103.103 0 0 0-.098-.095ZM26.993 8.023a.1.1 0 0 0 .098-.094.106.106 0 0 0-.1-.106.11.11 0 0 0-.1.097.104.104 0 0 0 .03.073.102.102 0 0 0 .072.03ZM31.3 8.512a.105.105 0 0 0 .102-.104.1.1 0 0 0-.105-.098.102.102 0 0 0-.07.034.102.102 0 0 0-.026.073.105.105 0 0 0 .1.095ZM24.918 8.77a.104.104 0 0 0 .075-.025.1.1 0 0 0 .03-.108.101.101 0 0 0-.09-.066.1.1 0 0 0-.095.057.1.1 0 0 0-.01.038.103.103 0 0 0 .09.104ZM24.008 9.372a.11.11 0 0 0 .1-.095.103.103 0 0 0-.102-.104.098.098 0 0 0-.097.093.104.104 0 0 0 .099.106ZM22.187 11.418a.1.1 0 0 0 .002-.2.101.101 0 0 0-.101.098c0 .027.01.053.028.072a.1.1 0 0 0 .07.03ZM21.921 11.903a.107.107 0 0 0 .105-.102.1.1 0 0 0-.2.004.104.104 0 0 0 .095.098ZM21.703 12.405a.098.098 0 0 0 .067-.168.103.103 0 0 0-.072-.032.113.113 0 0 0-.098.098.102.102 0 0 0 .103.102ZM21.36 13.456a.1.1 0 0 0 .099-.056.1.1 0 0 0 .01-.04.102.102 0 0 0-.1-.104.107.107 0 0 0-.1.096.105.105 0 0 0 .09.104ZM35.378 13.864a.109.109 0 0 0 .105.101.103.103 0 0 0 .094-.109.099.099 0 0 0-.102-.089.107.107 0 0 0-.097.097ZM35.276 13.324a.103.103 0 0 0 .065.095.103.103 0 0 0 .04.006.107.107 0 0 0 .09-.105.1.1 0 0 0-.1-.093.095.095 0 0 0-.089.06.093.093 0 0 0-.006.037ZM34.562 18.56a.102.102 0 0 0-.103.092.097.097 0 0 0 .005.04.097.097 0 0 0 .051.057.098.098 0 0 0 .078.004.1.1 0 0 0 .064-.092.107.107 0 0 0-.095-.101ZM25.424 8.523a.098.098 0 0 0 .09-.117.098.098 0 0 0-.13-.072.098.098 0 0 0-.063.085.107.107 0 0 0 .03.074.105.105 0 0 0 .073.03ZM34.553 11.393a.1.1 0 0 0 .063-.17.1.1 0 0 0-.068-.03.098.098 0 0 0-.07.03.1.1 0 0 0-.02.11.1.1 0 0 0 .095.06ZM22.49 10.953a.101.101 0 0 0 .098-.097.105.105 0 0 0-.068-.093.104.104 0 0 0-.04-.007.1.1 0 0 0-.091.104.1.1 0 0 0 .1.093ZM23.184 10.105a.102.102 0 0 0 .102-.09.104.104 0 0 0-.096-.11.1.1 0 0 0-.006.2ZM22.837 19.466a.1.1 0 0 0-.073.03.1.1 0 0 0-.029.074.1.1 0 0 0 .099.095.103.103 0 0 0 .097-.098c0-.025-.01-.05-.028-.068a.105.105 0 0 0-.066-.033ZM32.715 9.353a.1.1 0 0 0 .105-.097.101.101 0 0 0-.061-.095.102.102 0 0 0-.039-.007.1.1 0 0 0-.005.2ZM24.027 20.61a.1.1 0 0 0-.097.061.104.104 0 0 0-.008.04.108.108 0 0 0 .099.098.103.103 0 0 0 .098-.097.097.097 0 0 0-.092-.102ZM31.802 8.754a.101.101 0 0 0 .093-.102.1.1 0 0 0-.2.003.101.101 0 0 0 .107.099ZM26.481 21.826a.1.1 0 0 0-.105.088.105.105 0 0 0 .1.108.106.106 0 0 0 .1-.096.101.101 0 0 0-.095-.1ZM21.182 15.095a.1.1 0 0 0 .007-.2.102.102 0 0 0-.102.09.106.106 0 0 0 .095.11ZM30.27 8.14a.105.105 0 0 0 .096-.1.107.107 0 0 0-.1-.096.098.098 0 0 0-.073.032.101.101 0 0 0-.026.075.098.098 0 0 0 .103.09ZM27.542 7.94a.1.1 0 0 0 .06-.17.097.097 0 0 0-.136.002.104.104 0 0 0-.032.067.106.106 0 0 0 .108.1ZM28.086 7.899a.11.11 0 0 0 .098-.097.103.103 0 0 0-.102-.103.098.098 0 0 0-.095.095.1.1 0 0 0 .06.096.1.1 0 0 0 .039.009ZM35.231 12.894a.1.1 0 0 0 .093-.101.1.1 0 0 0-.096-.099.102.102 0 0 0-.093.068.104.104 0 0 0-.006.04.101.101 0 0 0 .102.092ZM35.231 17.054a.1.1 0 0 0-.072.165.1.1 0 0 0 .064.034.102.102 0 0 0 .11-.095.104.104 0 0 0-.102-.104ZM35.03 12.376a.1.1 0 0 0 .078-.169.097.097 0 0 0-.137-.003.098.098 0 0 0-.005.137c.016.02.04.032.065.035ZM33.153 9.704a.104.104 0 0 0 .09-.105.097.097 0 0 0-.098-.095.1.1 0 1 0 .008.2ZM34.245 10.929a.097.097 0 0 0 .099-.093.098.098 0 0 0-.09-.104.098.098 0 0 0-.104.09.096.096 0 0 0 .023.075.095.095 0 0 0 .072.032ZM22.817 10.515a.098.098 0 0 0 .07-.166.097.097 0 0 0-.167.067.103.103 0 0 0 .097.099ZM33.541 10.082a.097.097 0 0 0 .1-.093.103.103 0 0 0-.09-.105.101.101 0 0 0-.097.061.099.099 0 0 0-.008.04.097.097 0 0 0 .059.09.096.096 0 0 0 .036.008ZM33.913 10.492a.097.097 0 0 0 .096-.096.093.093 0 0 0-.093-.098.096.096 0 0 0-.074.024.096.096 0 0 0-.032.071.098.098 0 0 0 .03.072.098.098 0 0 0 .073.027ZM34.822 18.078a.1.1 0 0 0-.101.093.102.102 0 0 0 .104.101.098.098 0 0 0 .094-.099.1.1 0 0 0-.097-.095ZM30.797 8.305a.096.096 0 0 0 .067-.032.098.098 0 0 0-.006-.137.095.095 0 0 0-.07-.026.103.103 0 0 0-.098.096.099.099 0 0 0 .107.099ZM26.451 8.152a.102.102 0 0 0 .103-.103.097.097 0 0 0-.095-.095.1.1 0 0 0-.105.1.11.11 0 0 0 .098.098ZM35.378 16.524a.098.098 0 0 0-.088.063.099.099 0 0 0 .023.105.098.098 0 0 0 .165-.072.104.104 0 0 0-.1-.096ZM30.279 21.822a.097.097 0 0 0-.09.102.094.094 0 0 0 .096.093c.026 0 .05-.01.068-.027a.097.097 0 0 0-.074-.168ZM23.189 19.88a.097.097 0 0 0-.087.068.096.096 0 0 0 .034.105.096.096 0 0 0 .073.02.098.098 0 0 0 .066-.036.095.095 0 0 0 .01-.108.1.1 0 0 0-.059-.046.101.101 0 0 0-.037-.003ZM27.553 22.032a.104.104 0 0 0-.097.098.099.099 0 0 0 .06.093.1.1 0 0 0 .13-.13.1.1 0 0 0-.093-.061ZM33.163 20.256a.1.1 0 0 0-.104.09.1.1 0 0 0 .03.074.102.102 0 0 0 .073.03.096.096 0 0 0 .096-.097.094.094 0 0 0-.058-.09.094.094 0 0 0-.037-.007ZM28.109 22.07a.1.1 0 0 0-.073.032.104.104 0 0 0-.028.075.098.098 0 0 0 .196-.006.104.104 0 0 0-.095-.1ZM32.73 20.606a.1.1 0 0 0-.095.1.102.102 0 0 0 .1.096.1.1 0 0 0 .099-.095.097.097 0 0 0-.064-.095.098.098 0 0 0-.04-.006ZM24.48 20.924a.101.101 0 0 0-.074.028.1.1 0 0 0-.03.073.094.094 0 0 0 .094.098.096.096 0 0 0 .1-.093.102.102 0 0 0-.09-.106ZM23.587 9.723a.102.102 0 0 0 .085-.14.1.1 0 0 0-.06-.054.097.097 0 0 0-.126.101.101.101 0 0 0 .101.093ZM21.197 14.542a.095.095 0 0 0 .075-.025.097.097 0 0 0 .032-.07.096.096 0 0 0-.091-.1.102.102 0 0 0-.108.096.1.1 0 0 0 .092.099ZM32.275 9.034a.094.094 0 0 0 .067-.03.094.094 0 0 0 .026-.07.097.097 0 0 0-.1-.095.1.1 0 0 0-.07.029.097.097 0 0 0-.02.11.098.098 0 0 0 .097.056ZM35.482 15.98a.102.102 0 0 0-.097.098.096.096 0 0 0 .092.101.095.095 0 0 0 .074-.027.097.097 0 0 0 .029-.074.104.104 0 0 0-.098-.097ZM31.325 21.45a.098.098 0 0 0-.074.027.097.097 0 0 0 .001.142.098.098 0 0 0 .07.026.098.098 0 0 0 .003-.195ZM21.472 16.629a.098.098 0 0 0-.166-.066.097.097 0 0 0 .002.14.102.102 0 0 0 .074.03.099.099 0 0 0 .09-.104ZM21.305 15.543a.098.098 0 0 0-.098-.096.102.102 0 0 0-.094.066.104.104 0 0 0-.006.04.1.1 0 0 0 .105.088.093.093 0 0 0 .093-.098ZM21.527 17.066a.097.097 0 0 0-.103.101.095.095 0 0 0 .03.068.095.095 0 0 0 .069.026c.025 0 .05-.01.068-.027a.098.098 0 0 0-.064-.168ZM22.492 19.03a.1.1 0 0 0-.062.169.097.097 0 0 0 .069.027.096.096 0 0 0 .068-.027.091.091 0 0 0 .029-.068.097.097 0 0 0-.03-.073.1.1 0 0 0-.074-.028ZM21.712 17.585a.092.092 0 0 0-.1.09.098.098 0 0 0 .11.104.098.098 0 0 0 .08-.072.098.098 0 0 0-.09-.122ZM34.82 11.873a.103.103 0 0 0 .093-.101.1.1 0 0 0-.102-.094.095.095 0 0 0-.09.058.094.094 0 0 0-.007.037.1.1 0 0 0 .03.074c.01.009.022.016.035.02a.098.098 0 0 0 .04.006ZM21.512 12.922a.095.095 0 0 0 .095-.062.098.098 0 0 0 .005-.04.096.096 0 0 0-.1-.092.096.096 0 0 0-.088.06.095.095 0 0 0-.006.037.097.097 0 0 0 .094.097ZM22.194 18.57a.095.095 0 0 0-.067.029.092.092 0 0 0-.026.068.097.097 0 1 0 .193-.007.095.095 0 0 0-.063-.085.095.095 0 0 0-.037-.005ZM25.952 21.66a.097.097 0 0 0-.098.105.092.092 0 0 0 .032.066.093.093 0 0 0 .069.023c.025 0 .05-.012.067-.03a.095.095 0 0 0 .026-.069.1.1 0 0 0-.028-.067.099.099 0 0 0-.068-.029ZM29.19 7.935a.1.1 0 0 0 .091-.102.098.098 0 0 0-.188-.034.093.093 0 0 0-.007.037.095.095 0 0 0 .03.072c.01.01.022.017.035.021a.098.098 0 0 0 .04.006ZM29.208 22.032a.098.098 0 1 0-.006.195.098.098 0 0 0 .006-.195ZM8.155 20.495c.826-1.58 1.728-3.138 2.47-4.769.816-1.796-.205-3.658-2.105-4.06-1.75-.37-3.363.833-3.577 2.668-.188 1.62 1.052 2.988 2.794 3.074.26.013.523.002.886.002l-1.804 3.085h1.336Zm-.135-4.05c-1.163.015-2.01-.783-2.016-1.903-.007-1.13.833-1.963 1.967-1.953 1.088.01 1.87.803 1.88 1.91.012 1.125-.747 1.931-1.83 1.946ZM2.837 11.71c-.613.286-1.041.47-1.455.683-.46.236-.905.499-1.382.764l.049 1.027 1.615-.792v6.216h-.74v.87h2.677v-.87h-.738s.004-2.758-.001-4.003c-.005-1.229.023-2.46-.025-3.895ZM12.258 8.554H.046v.592h12.212v-.592ZM12.258 22.993H.046v.591h12.212v-.591ZM59.08 8.554H45.154v.592H59.08v-.592ZM59.08 22.993H45.154v.591H59.08v-.591ZM45.996 18.133a2.616 2.616 0 1 0 3.957-2.242 2.341 2.341 0 1 0-2.683 0 2.612 2.612 0 0 0-1.274 2.242Zm1.204-4.158a1.412 1.412 0 1 1 1.47 1.408c-.02 0-.04-.003-.059-.003-.02 0-.038.003-.058.003a1.41 1.41 0 0 1-1.353-1.408Zm1.411 2.47a1.688 1.688 0 1 1 0 3.377 1.688 1.688 0 0 1 0-3.377ZM55.7 20.738c-.621 0-1.154-.16-1.597-.481-.443-.321-.797-.766-1.06-1.335l.753-.513c.205.445.465.797.78 1.056.315.248.703.373 1.163.373.494 0 .878-.14 1.15-.42.281-.29.422-.683.422-1.18 0-.61-.183-1.06-.55-1.35-.366-.29-.937-.435-1.712-.435v-.884c.707 0 1.244-.135 1.61-.404.367-.27.55-.673.55-1.21 0-.415-.124-.746-.371-.994-.247-.249-.605-.373-1.074-.373-.443 0-.822.135-1.137.404-.315.269-.541.636-.677 1.102l-.767-.435c.145-.414.34-.766.588-1.055a2.52 2.52 0 0 1 .882-.668c.34-.165.715-.248 1.124-.248.707 0 1.27.202 1.687.605.426.404.64.942.64 1.615 0 .414-.09.78-.27 1.102-.17.32-.408.574-.715.76a1.974 1.974 0 0 1-1.01.295v-.17c.622 0 1.134.212 1.534.636.41.424.614.994.614 1.708 0 .517-.103.962-.307 1.335a2.144 2.144 0 0 1-.882.869c-.383.197-.84.295-1.367.295Z"/></g><defs><clipPath id="ia"><path fill="#fff" d="M0 0h59.134v30H0z"/></clipPath></defs></svg><svg fill="none" viewBox="0 0 15 16" id="plus" xmlns="http://www.w3.org/2000/svg"><path stroke="#fff" stroke-width="3" d="M0 8h15M7.5 15.5V.5"/></svg><svg fill="none" viewBox="0 0 25 25" id="price" xmlns="http://www.w3.org/2000/svg"><circle cx="12.5" cy="12.5" r="12.5" fill="#fff"/><path d="M13.805 15.264H6.83v-2.218h6.897c.52 0 .946-.077 1.278-.23a1.56 1.56 0 0 0 .736-.653c.157-.28.236-.613.236-.997 0-.375-.079-.714-.236-1.016a1.735 1.735 0 0 0-.723-.722c-.324-.18-.729-.269-1.214-.269H11.44V20H8.69V6.91h5.114c1.035 0 1.922.184 2.659.555.741.367 1.308.87 1.7 1.509.392.635.586 1.355.582 2.16.004.844-.194 1.575-.595 2.193-.4.618-.971 1.095-1.713 1.431-.741.337-1.62.506-2.633.506Zm.492.843v2.218H6.83v-2.218h7.466Z" fill="#21A038"/></svg><svg fill="none" viewBox="0 0 90 90" id="success" xmlns="http://www.w3.org/2000/svg"><path d="M45 .556a44.444 44.444 0 1 0 0 88.888A44.444 44.444 0 0 0 45 .556Zm29.028 29.527-36.5 36.473L15.972 45a3.928 3.928 0 1 1 5.556-5.555L37.583 55.5l30.945-30.917a3.93 3.93 0 0 1 5.555 5.556l-.055-.056Z" fill="#21A038"/><path d="m74.028 30.083-36.5 36.473L15.972 45a3.928 3.928 0 1 1 5.556-5.555L37.583 55.5l30.945-30.917a3.93 3.93 0 0 1 5.555 5.556l-.055-.056Z" fill="#fff"/></svg><svg fill="none" viewBox="0 0 42 42" id="tg" xmlns="http://www.w3.org/2000/svg"><path d="M21 .167C9.5.167.167 9.5.167 21 .167 32.5 9.5 41.834 21 41.834c11.5 0 20.834-9.334 20.834-20.834S32.5.167 21 .167Zm9.667 14.167c-.313 3.291-1.667 11.291-2.354 14.979-.292 1.562-.875 2.083-1.417 2.146-1.208.104-2.125-.792-3.291-1.563-1.834-1.208-2.875-1.958-4.646-3.125-2.063-1.354-.73-2.104.458-3.312.313-.313 5.646-5.167 5.75-5.604a.417.417 0 0 0-.104-.375c-.125-.105-.292-.063-.438-.042-.187.042-3.104 1.979-8.791 5.812-.834.563-1.584.855-2.25.834-.75-.021-2.167-.417-3.23-.771-1.312-.417-2.333-.646-2.25-1.375.042-.375.563-.75 1.542-1.146 6.083-2.646 10.125-4.396 12.146-5.23 5.792-2.416 6.98-2.832 7.77-2.832.168 0 .563.041.813.25.209.166.271.395.292.562-.02.125.02.5 0 .792Z" fill="#999"/></svg><svg fill="none" viewBox="0 0 25 25" id="vacancy" xmlns="http://www.w3.org/2000/svg"><circle cx="12.5" cy="12.5" r="12.5" fill="#fff"/><path fill-rule="evenodd" clip-rule="evenodd" d="M9.167 8.333a3.333 3.333 0 1 1 6.666 0 3.333 3.333 0 0 1-6.666 0Zm0 5A4.167 4.167 0 0 0 5 17.5 2.5 2.5 0 0 0 7.5 20h10a2.5 2.5 0 0 0 2.5-2.5 4.167 4.167 0 0 0-4.167-4.167H9.167Z" fill="#21A038"/></svg><svg fill="none" viewBox="0 0 42 42" id="vk" xmlns="http://www.w3.org/2000/svg"><path d="M27.402.167H14.62C2.944.167.167 2.944.167 14.598v12.784c0 11.672 2.756 14.452 14.431 14.452h12.784c11.672 0 14.452-2.757 14.452-14.432V14.62C41.834 2.944 39.077.167 27.402.167Zm6.402 29.73h-3.04c-1.15 0-1.495-.932-3.557-2.995-1.8-1.735-2.56-1.952-3.017-1.952-.63 0-.802.173-.802 1.042v2.733c0 .74-.24 1.173-2.171 1.173a11.857 11.857 0 0 1-9.267-5.556 24.22 24.22 0 0 1-4.796-10.069c0-.456.173-.868 1.042-.868h3.038c.78 0 1.062.347 1.368 1.15 1.475 4.341 3.992 8.116 5.013 8.116.392 0 .562-.173.562-1.15v-4.47c-.129-2.04-1.212-2.213-1.212-2.95a.75.75 0 0 1 .78-.697h4.774c.652 0 .869.325.869 1.107v6.033c0 .652.281.869.477.869.392 0 .694-.217 1.41-.933a25 25 0 0 0 3.734-6.209 1.308 1.308 0 0 1 1.323-.867h3.04c.91 0 1.103.457.91 1.107a37.932 37.932 0 0 1-4.08 7.01c-.327.5-.458.76 0 1.346.302.456 1.367 1.346 2.084 2.192a13.51 13.51 0 0 1 2.56 3.558c.26.846-.175 1.28-1.041 1.28Z" fill="#999"/></svg><svg fill="none" viewBox="0 0 50 36" id="youtube" xmlns="http://www.w3.org/2000/svg"><path d="M25.16.247h.277c2.57.01 15.585.103 19.094 1.047a6.282 6.282 0 0 1 4.422 4.437c.316 1.188.538 2.76.688 4.382l.03.325.07.812.025.325c.203 2.856.228 5.531.23 6.116v.234a100.25 100.25 0 0 1-.255 6.437l-.025.329-.029.325c-.156 1.787-.387 3.562-.734 4.868a6.271 6.271 0 0 1-4.422 4.438c-3.625.975-17.403 1.044-19.312 1.047h-.444c-.966 0-4.96-.019-9.147-.163l-.531-.019-.272-.012-.534-.022-.535-.022c-3.469-.153-6.772-.4-8.293-.812a6.273 6.273 0 0 1-4.422-4.435c-.347-1.303-.578-3.08-.735-4.868l-.025-.328-.025-.326A98.123 98.123 0 0 1 0 18v-.384c.006-.672.031-2.994.2-5.557l.022-.321.01-.163.024-.325.069-.813.031-.324c.15-1.622.372-3.197.688-4.382a6.272 6.272 0 0 1 4.422-4.437C6.987.887 10.29.637 13.759.48l.532-.022.537-.018.269-.01.534-.022C18.605.314 21.581.26 24.556.25h.603V.247ZM20 10.278v15.056l12.99-7.525L20 10.28Z" fill="#999"/></svg></svg>